<?xml version="1.0" encoding="utf-8"?>
<!-- Generator: Adobe Illustrator 30.2.1, SVG Export Plug-In . SVG Version: 9.03 Build 0)  -->
<svg version="1.1" id="Layer_1" xmlns="http://www.w3.org/2000/svg" xmlns:xlink="http://www.w3.org/1999/xlink" x="0px" y="0px"
	 viewBox="0 0 1500 386.4" style="enable-background:new 0 0 1500 386.4;" xml:space="preserve">
<style type="text/css">
	.Drop_x0020_Shadow{fill:none;}
	.Round_x0020_Corners_x0020_2_x0020_pt{fill:#FFFFFF;stroke:#231F20;stroke-miterlimit:10;}
	.Live_x0020_Reflect_x0020_X{fill:none;}
	.Bevel_x0020_Soft{fill:url(#SVGID_1_);}
	.Dusk{fill:#FFFFFF;}
	.Foliage_GS{fill:#FFDD00;}
	.Pompadour_GS{fill-rule:evenodd;clip-rule:evenodd;fill:#44ADE2;}
	.st0{fill:#2563EB;}
	.st1{fill:#FFFFFF;}
</style>
<linearGradient id="SVGID_1_" gradientUnits="userSpaceOnUse" x1="-6.366463e-12" y1="-206.801" x2="0.7071" y2="-206.0939">
	<stop  offset="0" style="stop-color:#DEDFE3"/>
	<stop  offset="0.1783" style="stop-color:#DADBDF"/>
	<stop  offset="0.3611" style="stop-color:#CECFD3"/>
	<stop  offset="0.546" style="stop-color:#B9BCBF"/>
	<stop  offset="0.7324" style="stop-color:#9CA0A2"/>
	<stop  offset="0.9181" style="stop-color:#787D7E"/>
	<stop  offset="1" style="stop-color:#656B6C"/>
</linearGradient>
<g>
	<g>
		<path class="st0" d="M124.5,159.4L172.6,0H58C26,0,0,26,0,58v33.4h99.2L124.5,159.4z"/>
		<path class="st0" d="M328.4,0H219.3L129,299.4L68.1,136.2H0v192.2c0,32.1,26,58,58,58h109.1L257.4,87l60.9,163.2h68.1V58
			C386.4,26,360.4,0,328.4,0z"/>
		<path class="st0" d="M261.9,227l-48.1,159.4h114.5c32.1,0,58-26,58-58V295h-99.2L261.9,227z"/>
	</g>
	<g>
		<path d="M616.1,103H639v190.4h-22.8v-90.6h-94.2v90.6h-22.8V103h22.8v77h94.2V103z"/>
		<path d="M768.9,157.4h22.8v136h-22.8l-1-23c-4.3,7.9-10.1,14.3-17.6,19.2c-7.5,4.9-16.4,7.3-26.7,7.3c-10,0-19.3-1.9-28-5.6
			c-8.7-3.8-16.4-9-23.1-15.6c-6.7-6.7-11.9-14.3-15.6-23.1c-3.7-8.7-5.6-18.1-5.6-28.1c0-9.7,1.8-18.9,5.4-27.5
			c3.6-8.6,8.7-16.2,15.2-22.6c6.5-6.5,14-11.6,22.5-15.2c8.5-3.7,17.7-5.5,27.5-5.5c10.7,0,20.1,2.5,28.1,7.5
			c8.1,5,14.6,11.5,19.6,19.5L768.9,157.4z M723.2,274.8c9,0,16.7-2.2,23.3-6.6c6.6-4.4,11.6-10.4,15.2-17.9
			c3.6-7.5,5.4-15.8,5.4-24.9c0-9.2-1.8-17.6-5.4-25.1c-3.6-7.5-8.7-13.4-15.3-17.8c-6.6-4.4-14.3-6.6-23.2-6.6
			c-9,0-17.1,2.2-24.5,6.7c-7.3,4.4-13.2,10.4-17.5,17.9c-4.3,7.5-6.5,15.8-6.5,25c0,9.2,2.2,17.5,6.7,25
			c4.4,7.5,10.3,13.4,17.7,17.8C706.4,272.6,714.5,274.8,723.2,274.8z"/>
		<path d="M809.5,293.4v-204h22.8v204H809.5z"/>
		<path d="M912.7,297c-12.5,0-23.9-3.2-34.2-9.7c-10.3-6.4-18.5-15.1-24.6-25.9c-6.1-10.8-9.2-22.8-9.2-36c0-10,1.8-19.3,5.3-27.9
			c3.5-8.7,8.4-16.3,14.6-22.8c6.2-6.6,13.4-11.7,21.7-15.4c8.3-3.7,17-5.6,26.4-5.6c12.5,0,23.9,3.2,34.2,9.7
			c10.3,6.4,18.5,15.1,24.6,26c6.1,10.9,9.2,22.9,9.2,36.2c0,9.9-1.8,19.1-5.3,27.7c-3.5,8.6-8.4,16.2-14.6,22.8
			c-6.2,6.6-13.4,11.7-21.6,15.4C931,295.1,922.1,297,912.7,297z M912.7,274.1c8.5,0,16.2-2.2,23-6.7c6.8-4.5,12.2-10.4,16.2-17.8
			c3.9-7.4,5.9-15.4,5.9-24.1c0-8.9-2-17-6.1-24.5c-4-7.4-9.4-13.4-16.2-17.8c-6.8-4.4-14.4-6.7-22.8-6.7c-8.5,0-16.2,2.2-23,6.7
			c-6.8,4.5-12.2,10.4-16.2,17.9c-4,7.4-6,15.5-6,24.3c0,9.1,2,17.3,6.1,24.7c4.1,7.4,9.6,13.2,16.5,17.5
			C897,272,904.6,274.1,912.7,274.1z"/>
		<path d="M991.2,293.4V103h24.7l95.1,149V103h22.8v190.4h-24.6l-95.2-149v149H991.2z"/>
		<path d="M1214.2,297c-12.5,0-23.9-3.2-34.2-9.7c-10.3-6.4-18.5-15.1-24.6-25.9c-6.1-10.8-9.2-22.8-9.2-36c0-10,1.8-19.3,5.3-27.9
			c3.5-8.7,8.4-16.3,14.6-22.8c6.2-6.6,13.4-11.7,21.7-15.4c8.3-3.7,17-5.6,26.4-5.6c12.5,0,23.9,3.2,34.2,9.7
			c10.3,6.4,18.5,15.1,24.6,26c6.1,10.9,9.2,22.9,9.2,36.2c0,9.9-1.8,19.1-5.3,27.7c-3.5,8.6-8.4,16.2-14.6,22.8
			c-6.2,6.6-13.4,11.7-21.6,15.4C1232.4,295.1,1223.6,297,1214.2,297z M1214.2,274.1c8.5,0,16.2-2.2,23-6.7
			c6.8-4.5,12.2-10.4,16.2-17.8c3.9-7.4,5.9-15.4,5.9-24.1c0-8.9-2-17-6.1-24.5c-4-7.4-9.4-13.4-16.2-17.8
			c-6.8-4.4-14.4-6.7-22.8-6.7c-8.5,0-16.2,2.2-23,6.7c-6.8,4.5-12.2,10.4-16.2,17.9c-4,7.4-6,15.5-6,24.3c0,9.1,2,17.3,6.1,24.7
			c4.1,7.4,9.6,13.2,16.5,17.5C1198.5,272,1206,274.1,1214.2,274.1z"/>
		<path d="M1362.7,180.3h-30.9l-0.1,113.1h-22.8l0.1-113.1h-23.4v-22.8h23.4l-0.1-42.7h22.8l0.1,42.7h30.9V180.3z"/>
		<path d="M1432.4,297c-12.5,0-23.9-3.2-34.2-9.7c-10.3-6.4-18.5-15.1-24.6-25.9c-6.1-10.8-9.2-22.8-9.2-36c0-10,1.8-19.3,5.3-27.9
			c3.5-8.7,8.4-16.3,14.6-22.8c6.2-6.6,13.4-11.7,21.7-15.4c8.3-3.7,17-5.6,26.4-5.6c10.2,0,19.6,2.1,28.2,6.2
			c8.6,4.1,15.9,9.9,22,17.2c6.1,7.3,10.7,15.9,13.7,25.6c3,9.7,4.1,20.1,3.3,31.1h-111c1.1,7.7,3.6,14.6,7.6,20.6
			c4,6,9.1,10.8,15.3,14.3c6.2,3.5,13.1,5.4,20.7,5.4c8.2,0,15.5-2.1,22.2-6.3c6.6-4.2,12-10,16-17.3l23.3,5.4
			c-5.4,12.1-13.6,21.9-24.6,29.6C1458.3,293.1,1446,297,1432.4,297z M1388.1,215.8h88.7c-0.7-7.6-3.2-14.6-7.3-20.9
			c-4.2-6.3-9.5-11.4-15.9-15.2c-6.4-3.8-13.5-5.7-21.1-5.7c-7.6,0-14.6,1.9-20.9,5.6c-6.3,3.7-11.6,8.7-15.7,15
			C1391.7,200.9,1389.1,208,1388.1,215.8z"/>
	</g>
</g>
</svg>
